# xmcd
#
# Track frame offsets: 
#        150
#        16371
#        33344
#        53626
#        75559
#        94357
#        119662
#        141358
#        162211
#        179895
#        194186
#
# Disc length: 2896 seconds
#
# Revision: 0
# Processed by: cddbd v1.5.2PL0 Copyright (c) Steve Scherf et al.
# Submitted via: ExactAudioCopy v1.3
#
DISCID=a00b4e0b
DTITLE=Monty Russell - Fat Man
DYEAR=2018
DGENRE=Louisiana Blues
TTITLE0=Fat Man
TTITLE1=Nothing but Love For You
TTITLE2=Shake Back Baby
TTITLE3=Crescent City Way
TTITLE4=Hold Out For Love
TTITLE5=Cowboy Cadillac
TTITLE6=First You Cry
TTITLE7=Parish Pea Farm
TTITLE8=Too Many Honky Tonks
TTITLE9=The Way You Just Kissed Me
TTITLE10=The Joy You Bring
EXTD=
EXTT0=
EXTT1=
EXTT2=
EXTT3=
EXTT4=
EXTT5=
EXTT6=
EXTT7=
EXTT8=
EXTT9=
EXTT10=
PLAYORDER=
